<mxfile host="app.diagrams.net" modified="2024-05-15T14:58:25.313Z" agent="Mozilla/5.0 (Windows NT 10.0; Win64; x64) AppleWebKit/537.36 (KHTML, like Gecko) Chrome/123.0.0.0 Safari/537.36 OPR/109.0.0.0 (Edition Yx 05)" etag="fC3ZHWn93nZLsjEy4Ods" version="24.4.0" type="device">
  <diagram name="Страница — 1" id="SUEfQYOdfBa7ftIrAx9k">
    <mxGraphModel dx="1530" dy="1836" grid="1" gridSize="10" guides="1" tooltips="1" connect="1" arrows="1" fold="1" page="1" pageScale="1" pageWidth="827" pageHeight="1169" math="0" shadow="0">
      <root>
        <mxCell id="0" />
        <mxCell id="1" parent="0" />
        <mxCell id="Pzo5eB3ryecymC6UtlE7-1" value="Машина" style="ellipse;whiteSpace=wrap;html=1;" parent="1" vertex="1">
          <mxGeometry x="1510" y="540" width="120" height="50" as="geometry" />
        </mxCell>
        <mxCell id="Pzo5eB3ryecymC6UtlE7-4" value="&lt;div&gt;По знанию системы&lt;/div&gt;" style="text;html=1;align=center;verticalAlign=middle;resizable=0;points=[];autosize=1;strokeColor=none;fillColor=none;" parent="1" vertex="1">
          <mxGeometry x="1220" y="65" width="130" height="30" as="geometry" />
        </mxCell>
        <mxCell id="Pzo5eB3ryecymC6UtlE7-5" value="" style="endArrow=none;html=1;rounded=0;exitX=0;exitY=0;exitDx=0;exitDy=0;" parent="1" source="Pzo5eB3ryecymC6UtlE7-1" edge="1">
          <mxGeometry width="50" height="50" relative="1" as="geometry">
            <mxPoint x="1250" y="230" as="sourcePoint" />
            <mxPoint x="1200" y="100" as="targetPoint" />
            <Array as="points">
              <mxPoint x="1360" y="100" />
            </Array>
          </mxGeometry>
        </mxCell>
        <mxCell id="Pzo5eB3ryecymC6UtlE7-6" value="" style="endArrow=none;html=1;rounded=0;" parent="1" edge="1">
          <mxGeometry width="50" height="50" relative="1" as="geometry">
            <mxPoint x="1200" y="140" as="sourcePoint" />
            <mxPoint x="1200" y="60" as="targetPoint" />
          </mxGeometry>
        </mxCell>
        <mxCell id="Pzo5eB3ryecymC6UtlE7-8" value="" style="endArrow=classic;html=1;rounded=0;" parent="1" edge="1">
          <mxGeometry width="50" height="50" relative="1" as="geometry">
            <mxPoint x="1200" y="60" as="sourcePoint" />
            <mxPoint x="1150" y="60" as="targetPoint" />
          </mxGeometry>
        </mxCell>
        <mxCell id="Pzo5eB3ryecymC6UtlE7-9" value="" style="endArrow=classic;html=1;rounded=0;" parent="1" edge="1">
          <mxGeometry width="50" height="50" relative="1" as="geometry">
            <mxPoint x="1200" y="99.52" as="sourcePoint" />
            <mxPoint x="1150" y="99.52" as="targetPoint" />
          </mxGeometry>
        </mxCell>
        <mxCell id="Pzo5eB3ryecymC6UtlE7-10" value="" style="endArrow=classic;html=1;rounded=0;" parent="1" edge="1">
          <mxGeometry width="50" height="50" relative="1" as="geometry">
            <mxPoint x="1200" y="140" as="sourcePoint" />
            <mxPoint x="1150" y="140" as="targetPoint" />
          </mxGeometry>
        </mxCell>
        <mxCell id="Pzo5eB3ryecymC6UtlE7-11" value="Неизвестен механизм, есть только документация" style="text;html=1;align=center;verticalAlign=middle;whiteSpace=wrap;rounded=0;" parent="1" vertex="1">
          <mxGeometry x="800" y="30" width="350" height="50" as="geometry" />
        </mxCell>
        <mxCell id="Pzo5eB3ryecymC6UtlE7-13" value="Известен механизм работы машины и представлена вся документация" style="text;html=1;align=center;verticalAlign=middle;whiteSpace=wrap;rounded=0;" parent="1" vertex="1">
          <mxGeometry x="810" y="70" width="320" height="60" as="geometry" />
        </mxCell>
        <mxCell id="Pzo5eB3ryecymC6UtlE7-15" value="Известны внутренние механизмы и его компонентов" style="text;html=1;align=center;verticalAlign=middle;resizable=0;points=[];autosize=1;strokeColor=none;fillColor=none;" parent="1" vertex="1">
          <mxGeometry x="815" y="128" width="320" height="30" as="geometry" />
        </mxCell>
        <mxCell id="Pzo5eB3ryecymC6UtlE7-17" value="" style="endArrow=none;html=1;rounded=0;exitX=0;exitY=0;exitDx=0;exitDy=0;" parent="1" source="Pzo5eB3ryecymC6UtlE7-1" edge="1">
          <mxGeometry width="50" height="50" relative="1" as="geometry">
            <mxPoint x="1380" y="520" as="sourcePoint" />
            <mxPoint x="1200" y="240" as="targetPoint" />
            <Array as="points">
              <mxPoint x="1330" y="240" />
            </Array>
          </mxGeometry>
        </mxCell>
        <mxCell id="Pzo5eB3ryecymC6UtlE7-18" value="" style="endArrow=none;html=1;rounded=0;" parent="1" edge="1">
          <mxGeometry width="50" height="50" relative="1" as="geometry">
            <mxPoint x="1200" y="260" as="sourcePoint" />
            <mxPoint x="1200" y="210" as="targetPoint" />
          </mxGeometry>
        </mxCell>
        <mxCell id="Pzo5eB3ryecymC6UtlE7-20" value="" style="endArrow=classic;html=1;rounded=0;" parent="1" edge="1">
          <mxGeometry width="50" height="50" relative="1" as="geometry">
            <mxPoint x="1200" y="210" as="sourcePoint" />
            <mxPoint x="1160" y="210" as="targetPoint" />
          </mxGeometry>
        </mxCell>
        <mxCell id="Pzo5eB3ryecymC6UtlE7-21" value="" style="endArrow=classic;html=1;rounded=0;" parent="1" edge="1">
          <mxGeometry width="50" height="50" relative="1" as="geometry">
            <mxPoint x="1200" y="260" as="sourcePoint" />
            <mxPoint x="1160" y="260" as="targetPoint" />
          </mxGeometry>
        </mxCell>
        <mxCell id="Pzo5eB3ryecymC6UtlE7-22" value="По позитивности сценария" style="text;html=1;align=center;verticalAlign=middle;whiteSpace=wrap;rounded=0;" parent="1" vertex="1">
          <mxGeometry x="1210" y="200" width="110" height="40" as="geometry" />
        </mxCell>
        <mxCell id="Pzo5eB3ryecymC6UtlE7-23" value="Двигатель запускается без проблем, машина работает бесшумно и без вибраций" style="text;html=1;align=center;verticalAlign=middle;resizable=0;points=[];autosize=1;strokeColor=none;fillColor=none;" parent="1" vertex="1">
          <mxGeometry x="690" y="200" width="480" height="30" as="geometry" />
        </mxCell>
        <mxCell id="Pzo5eB3ryecymC6UtlE7-24" value="Попытка завести машины без ключа" style="text;html=1;align=center;verticalAlign=middle;resizable=0;points=[];autosize=1;strokeColor=none;fillColor=none;" parent="1" vertex="1">
          <mxGeometry x="930" y="250" width="230" height="30" as="geometry" />
        </mxCell>
        <mxCell id="Pzo5eB3ryecymC6UtlE7-25" value="" style="endArrow=none;html=1;rounded=0;exitX=0;exitY=0;exitDx=0;exitDy=0;" parent="1" source="Pzo5eB3ryecymC6UtlE7-1" edge="1">
          <mxGeometry width="50" height="50" relative="1" as="geometry">
            <mxPoint x="1520" y="540" as="sourcePoint" />
            <mxPoint x="1200" y="360" as="targetPoint" />
            <Array as="points">
              <mxPoint x="1290" y="360" />
            </Array>
          </mxGeometry>
        </mxCell>
        <mxCell id="Pzo5eB3ryecymC6UtlE7-26" value="По степени&amp;nbsp;&lt;div&gt;автоматизации&lt;/div&gt;" style="text;html=1;align=center;verticalAlign=middle;resizable=0;points=[];autosize=1;strokeColor=none;fillColor=none;" parent="1" vertex="1">
          <mxGeometry x="1200" y="320" width="110" height="40" as="geometry" />
        </mxCell>
        <mxCell id="Pzo5eB3ryecymC6UtlE7-27" value="" style="endArrow=none;html=1;rounded=0;" parent="1" edge="1">
          <mxGeometry width="50" height="50" relative="1" as="geometry">
            <mxPoint x="1200" y="400" as="sourcePoint" />
            <mxPoint x="1200" y="320" as="targetPoint" />
          </mxGeometry>
        </mxCell>
        <mxCell id="Pzo5eB3ryecymC6UtlE7-29" value="" style="endArrow=classic;html=1;rounded=0;" parent="1" edge="1">
          <mxGeometry width="50" height="50" relative="1" as="geometry">
            <mxPoint x="1200" y="320" as="sourcePoint" />
            <mxPoint x="1160" y="320" as="targetPoint" />
          </mxGeometry>
        </mxCell>
        <mxCell id="Pzo5eB3ryecymC6UtlE7-30" value="Переключение передач" style="text;html=1;align=center;verticalAlign=middle;whiteSpace=wrap;rounded=0;" parent="1" vertex="1">
          <mxGeometry x="990" y="310" width="160" height="20" as="geometry" />
        </mxCell>
        <mxCell id="Pzo5eB3ryecymC6UtlE7-31" value="" style="endArrow=classic;html=1;rounded=0;" parent="1" edge="1">
          <mxGeometry width="50" height="50" relative="1" as="geometry">
            <mxPoint x="1200" y="360" as="sourcePoint" />
            <mxPoint x="1160" y="360" as="targetPoint" />
          </mxGeometry>
        </mxCell>
        <mxCell id="Pzo5eB3ryecymC6UtlE7-32" value="" style="endArrow=classic;html=1;rounded=0;" parent="1" edge="1">
          <mxGeometry width="50" height="50" relative="1" as="geometry">
            <mxPoint x="1200" y="400" as="sourcePoint" />
            <mxPoint x="1160" y="400" as="targetPoint" />
          </mxGeometry>
        </mxCell>
        <mxCell id="Pzo5eB3ryecymC6UtlE7-33" value="Система помощи при парковке&amp;nbsp;" style="text;html=1;align=center;verticalAlign=middle;whiteSpace=wrap;rounded=0;" parent="1" vertex="1">
          <mxGeometry x="950" y="350" width="210" height="20" as="geometry" />
        </mxCell>
        <mxCell id="Pzo5eB3ryecymC6UtlE7-34" value="Симуляция аварийной ситуации для активации системы автоматического торможения" style="text;html=1;align=center;verticalAlign=middle;whiteSpace=wrap;rounded=0;" parent="1" vertex="1">
          <mxGeometry x="800" y="390" width="360" height="40" as="geometry" />
        </mxCell>
        <mxCell id="Pzo5eB3ryecymC6UtlE7-36" value="" style="endArrow=none;html=1;rounded=0;entryX=0.07;entryY=0.282;entryDx=0;entryDy=0;entryPerimeter=0;" parent="1" target="Pzo5eB3ryecymC6UtlE7-1" edge="1">
          <mxGeometry width="50" height="50" relative="1" as="geometry">
            <mxPoint x="1200" y="520" as="sourcePoint" />
            <mxPoint x="1400" y="520" as="targetPoint" />
            <Array as="points">
              <mxPoint x="1350" y="520" />
            </Array>
          </mxGeometry>
        </mxCell>
        <mxCell id="Pzo5eB3ryecymC6UtlE7-37" value="По исполнителям тестирования" style="text;html=1;align=center;verticalAlign=middle;whiteSpace=wrap;rounded=0;" parent="1" vertex="1">
          <mxGeometry x="1200" y="480" width="120" height="40" as="geometry" />
        </mxCell>
        <mxCell id="Pzo5eB3ryecymC6UtlE7-38" value="" style="endArrow=none;html=1;rounded=0;" parent="1" edge="1">
          <mxGeometry width="50" height="50" relative="1" as="geometry">
            <mxPoint x="1200" y="520" as="sourcePoint" />
            <mxPoint x="1200" y="480" as="targetPoint" />
          </mxGeometry>
        </mxCell>
        <mxCell id="Pzo5eB3ryecymC6UtlE7-39" value="" style="endArrow=classic;html=1;rounded=0;" parent="1" edge="1">
          <mxGeometry width="50" height="50" relative="1" as="geometry">
            <mxPoint x="1200" y="480" as="sourcePoint" />
            <mxPoint x="1160" y="480" as="targetPoint" />
          </mxGeometry>
        </mxCell>
        <mxCell id="Pzo5eB3ryecymC6UtlE7-40" value="" style="endArrow=classic;html=1;rounded=0;" parent="1" edge="1">
          <mxGeometry width="50" height="50" relative="1" as="geometry">
            <mxPoint x="1200" y="520" as="sourcePoint" />
            <mxPoint x="1160" y="520" as="targetPoint" />
          </mxGeometry>
        </mxCell>
        <mxCell id="Pzo5eB3ryecymC6UtlE7-42" value="Сотрудники производителя автомобиля, включая инженеров" style="text;html=1;align=center;verticalAlign=middle;whiteSpace=wrap;rounded=0;" parent="1" vertex="1">
          <mxGeometry x="840" y="460" width="320" height="30" as="geometry" />
        </mxCell>
        <mxCell id="Pzo5eB3ryecymC6UtlE7-45" value="Представители дилерских центров и сервисных инженеров" style="text;html=1;align=center;verticalAlign=middle;whiteSpace=wrap;rounded=0;" parent="1" vertex="1">
          <mxGeometry x="850" y="510" width="300" height="30" as="geometry" />
        </mxCell>
        <mxCell id="Pzo5eB3ryecymC6UtlE7-46" value="" style="endArrow=none;html=1;rounded=0;entryX=0;entryY=0.5;entryDx=0;entryDy=0;" parent="1" target="Pzo5eB3ryecymC6UtlE7-1" edge="1">
          <mxGeometry width="50" height="50" relative="1" as="geometry">
            <mxPoint x="1280" y="640" as="sourcePoint" />
            <mxPoint x="1280" y="580" as="targetPoint" />
          </mxGeometry>
        </mxCell>
        <mxCell id="Pzo5eB3ryecymC6UtlE7-47" value="" style="endArrow=none;html=1;rounded=0;" parent="1" edge="1">
          <mxGeometry width="50" height="50" relative="1" as="geometry">
            <mxPoint x="1280" y="690" as="sourcePoint" />
            <mxPoint x="1280" y="580" as="targetPoint" />
          </mxGeometry>
        </mxCell>
        <mxCell id="Pzo5eB3ryecymC6UtlE7-48" value="" style="endArrow=classic;html=1;rounded=0;" parent="1" edge="1">
          <mxGeometry width="50" height="50" relative="1" as="geometry">
            <mxPoint x="1280" y="580" as="sourcePoint" />
            <mxPoint x="1200" y="580" as="targetPoint" />
          </mxGeometry>
        </mxCell>
        <mxCell id="Pzo5eB3ryecymC6UtlE7-49" value="По уровню тестирования" style="text;html=1;align=center;verticalAlign=middle;whiteSpace=wrap;rounded=0;rotation=-15;" parent="1" vertex="1">
          <mxGeometry x="1290" y="580" width="130" height="30" as="geometry" />
        </mxCell>
        <mxCell id="Pzo5eB3ryecymC6UtlE7-50" value="Тестирование отдельных компонентов&amp;nbsp;" style="text;html=1;align=center;verticalAlign=middle;whiteSpace=wrap;rounded=0;" parent="1" vertex="1">
          <mxGeometry x="940" y="570" width="260" height="30" as="geometry" />
        </mxCell>
        <mxCell id="Pzo5eB3ryecymC6UtlE7-51" value="" style="endArrow=classic;html=1;rounded=0;" parent="1" edge="1">
          <mxGeometry width="50" height="50" relative="1" as="geometry">
            <mxPoint x="1280" y="640" as="sourcePoint" />
            <mxPoint x="1200" y="640" as="targetPoint" />
          </mxGeometry>
        </mxCell>
        <mxCell id="Pzo5eB3ryecymC6UtlE7-54" value="Тестирование взаимодействия различных компонентов и модулей автомобиля в совокупности" style="text;html=1;align=center;verticalAlign=middle;whiteSpace=wrap;rounded=0;" parent="1" vertex="1">
          <mxGeometry x="860" y="620" width="330" height="30" as="geometry" />
        </mxCell>
        <mxCell id="Pzo5eB3ryecymC6UtlE7-55" value="" style="endArrow=classic;html=1;rounded=0;" parent="1" edge="1">
          <mxGeometry width="50" height="50" relative="1" as="geometry">
            <mxPoint x="1281" y="690" as="sourcePoint" />
            <mxPoint x="1201" y="690" as="targetPoint" />
          </mxGeometry>
        </mxCell>
        <mxCell id="Pzo5eB3ryecymC6UtlE7-56" value="Полное тестирование функциональности и характеристик машины как единого целого" style="text;html=1;align=center;verticalAlign=middle;whiteSpace=wrap;rounded=0;" parent="1" vertex="1">
          <mxGeometry x="900" y="675" width="290" height="30" as="geometry" />
        </mxCell>
        <mxCell id="Pzo5eB3ryecymC6UtlE7-57" value="" style="endArrow=none;html=1;rounded=0;" parent="1" edge="1">
          <mxGeometry width="50" height="50" relative="1" as="geometry">
            <mxPoint x="1350" y="780" as="sourcePoint" />
            <mxPoint x="1550" y="590" as="targetPoint" />
          </mxGeometry>
        </mxCell>
        <mxCell id="Pzo5eB3ryecymC6UtlE7-58" value="" style="endArrow=none;html=1;rounded=0;" parent="1" edge="1">
          <mxGeometry width="50" height="50" relative="1" as="geometry">
            <mxPoint x="1320" y="760" as="sourcePoint" />
            <mxPoint x="1380" y="800" as="targetPoint" />
          </mxGeometry>
        </mxCell>
        <mxCell id="Pzo5eB3ryecymC6UtlE7-59" value="По формальности" style="text;html=1;align=center;verticalAlign=middle;whiteSpace=wrap;rounded=0;rotation=-45;" parent="1" vertex="1">
          <mxGeometry x="1366.21" y="680" width="110" height="20" as="geometry" />
        </mxCell>
        <mxCell id="Pzo5eB3ryecymC6UtlE7-60" value="" style="endArrow=classic;html=1;rounded=0;" parent="1" edge="1">
          <mxGeometry width="50" height="50" relative="1" as="geometry">
            <mxPoint x="1320" y="760" as="sourcePoint" />
            <mxPoint x="1280" y="760" as="targetPoint" />
          </mxGeometry>
        </mxCell>
        <mxCell id="Pzo5eB3ryecymC6UtlE7-62" value="Попытка завести автомобиль в различных условия&amp;nbsp;" style="text;html=1;align=center;verticalAlign=middle;whiteSpace=wrap;rounded=0;" parent="1" vertex="1">
          <mxGeometry x="1060" y="750" width="220" height="30" as="geometry" />
        </mxCell>
        <mxCell id="Pzo5eB3ryecymC6UtlE7-63" value="" style="endArrow=classic;html=1;rounded=0;" parent="1" edge="1">
          <mxGeometry width="50" height="50" relative="1" as="geometry">
            <mxPoint x="1350" y="780" as="sourcePoint" />
            <mxPoint x="1320" y="810" as="targetPoint" />
          </mxGeometry>
        </mxCell>
        <mxCell id="Pzo5eB3ryecymC6UtlE7-64" value="Экспериментирование с условиями дороги для выявления реакции машины&amp;nbsp;" style="text;html=1;align=center;verticalAlign=middle;whiteSpace=wrap;rounded=0;" parent="1" vertex="1">
          <mxGeometry x="1035" y="810" width="270" height="30" as="geometry" />
        </mxCell>
        <mxCell id="Pzo5eB3ryecymC6UtlE7-65" value="" style="endArrow=classic;html=1;rounded=0;" parent="1" edge="1">
          <mxGeometry width="50" height="50" relative="1" as="geometry">
            <mxPoint x="1380" y="800" as="sourcePoint" />
            <mxPoint x="1380" y="840" as="targetPoint" />
          </mxGeometry>
        </mxCell>
        <mxCell id="Pzo5eB3ryecymC6UtlE7-67" value="Использование новых технологий, таких как автоматическая парковка" style="text;html=1;align=center;verticalAlign=middle;whiteSpace=wrap;rounded=0;" parent="1" vertex="1">
          <mxGeometry x="1250" y="850" width="260" height="30" as="geometry" />
        </mxCell>
        <mxCell id="1HPbtOqM5iS4PaXnbGBT-1" value="" style="endArrow=none;html=1;rounded=0;exitX=0.5;exitY=0;exitDx=0;exitDy=0;" edge="1" parent="1" source="Pzo5eB3ryecymC6UtlE7-1">
          <mxGeometry width="50" height="50" relative="1" as="geometry">
            <mxPoint x="1710" y="330" as="sourcePoint" />
            <mxPoint x="1700" y="80" as="targetPoint" />
            <Array as="points">
              <mxPoint x="1580" y="80" />
            </Array>
          </mxGeometry>
        </mxCell>
        <mxCell id="1HPbtOqM5iS4PaXnbGBT-2" value="" style="endArrow=none;html=1;rounded=0;" edge="1" parent="1">
          <mxGeometry width="50" height="50" relative="1" as="geometry">
            <mxPoint x="1700" y="130" as="sourcePoint" />
            <mxPoint x="1700" y="40" as="targetPoint" />
          </mxGeometry>
        </mxCell>
        <mxCell id="1HPbtOqM5iS4PaXnbGBT-3" value="По&lt;span style=&quot;background-color: initial;&quot;&gt;&amp;nbsp;исполнению кода&lt;/span&gt;" style="text;html=1;align=center;verticalAlign=middle;whiteSpace=wrap;rounded=0;" vertex="1" parent="1">
          <mxGeometry x="1580" y="40" width="100" height="30" as="geometry" />
        </mxCell>
        <mxCell id="1HPbtOqM5iS4PaXnbGBT-6" value="" style="endArrow=none;html=1;rounded=0;" edge="1" parent="1">
          <mxGeometry width="50" height="50" relative="1" as="geometry">
            <mxPoint x="1700" y="40" as="sourcePoint" />
            <mxPoint x="1760" y="40" as="targetPoint" />
          </mxGeometry>
        </mxCell>
        <mxCell id="1HPbtOqM5iS4PaXnbGBT-7" value="" style="endArrow=none;html=1;rounded=0;" edge="1" parent="1">
          <mxGeometry width="50" height="50" relative="1" as="geometry">
            <mxPoint x="1760" y="100" as="sourcePoint" />
            <mxPoint x="1760" y="20" as="targetPoint" />
          </mxGeometry>
        </mxCell>
        <mxCell id="1HPbtOqM5iS4PaXnbGBT-8" value="" style="endArrow=classic;html=1;rounded=0;" edge="1" parent="1">
          <mxGeometry width="50" height="50" relative="1" as="geometry">
            <mxPoint x="1760" y="20" as="sourcePoint" />
            <mxPoint x="1800" y="20" as="targetPoint" />
          </mxGeometry>
        </mxCell>
        <mxCell id="1HPbtOqM5iS4PaXnbGBT-9" value="Применение специальных инструментов для анализа характеристик" style="text;html=1;align=center;verticalAlign=middle;whiteSpace=wrap;rounded=0;" vertex="1" parent="1">
          <mxGeometry x="1800" y="10" width="390" height="30" as="geometry" />
        </mxCell>
        <mxCell id="1HPbtOqM5iS4PaXnbGBT-10" value="" style="endArrow=classic;html=1;rounded=0;" edge="1" parent="1">
          <mxGeometry width="50" height="50" relative="1" as="geometry">
            <mxPoint x="1760" y="100" as="sourcePoint" />
            <mxPoint x="1800" y="100" as="targetPoint" />
          </mxGeometry>
        </mxCell>
        <mxCell id="1HPbtOqM5iS4PaXnbGBT-11" value="" style="endArrow=classic;html=1;rounded=0;" edge="1" parent="1">
          <mxGeometry width="50" height="50" relative="1" as="geometry">
            <mxPoint x="1700" y="130" as="sourcePoint" />
            <mxPoint x="1760" y="130" as="targetPoint" />
          </mxGeometry>
        </mxCell>
        <mxCell id="1HPbtOqM5iS4PaXnbGBT-12" value="Запуск тестов на машине для проверки работы в различных условиях" style="text;html=1;align=center;verticalAlign=middle;whiteSpace=wrap;rounded=0;" vertex="1" parent="1">
          <mxGeometry x="1758" y="128" width="292" height="30" as="geometry" />
        </mxCell>
        <mxCell id="1HPbtOqM5iS4PaXnbGBT-14" value="Обсуждение с выявлением проблем" style="text;html=1;align=center;verticalAlign=middle;whiteSpace=wrap;rounded=0;" vertex="1" parent="1">
          <mxGeometry x="1800" y="85" width="230" height="30" as="geometry" />
        </mxCell>
        <mxCell id="1HPbtOqM5iS4PaXnbGBT-15" value="" style="endArrow=none;html=1;rounded=0;exitX=0.673;exitY=-0.025;exitDx=0;exitDy=0;exitPerimeter=0;" edge="1" parent="1" source="Pzo5eB3ryecymC6UtlE7-1">
          <mxGeometry width="50" height="50" relative="1" as="geometry">
            <mxPoint x="1600" y="540" as="sourcePoint" />
            <mxPoint x="1800" y="400" as="targetPoint" />
            <Array as="points">
              <mxPoint x="1720" y="400" />
            </Array>
          </mxGeometry>
        </mxCell>
        <mxCell id="1HPbtOqM5iS4PaXnbGBT-16" value="" style="endArrow=none;html=1;rounded=0;exitX=1;exitY=1;exitDx=0;exitDy=0;exitPerimeter=0;" edge="1" parent="1" source="1HPbtOqM5iS4PaXnbGBT-17">
          <mxGeometry width="50" height="50" relative="1" as="geometry">
            <mxPoint x="1799" y="410" as="sourcePoint" />
            <mxPoint x="1799" y="320" as="targetPoint" />
          </mxGeometry>
        </mxCell>
        <mxCell id="1HPbtOqM5iS4PaXnbGBT-17" value="По целям" style="text;html=1;align=center;verticalAlign=middle;whiteSpace=wrap;rounded=0;" vertex="1" parent="1">
          <mxGeometry x="1710" y="370" width="90" height="30" as="geometry" />
        </mxCell>
        <mxCell id="1HPbtOqM5iS4PaXnbGBT-18" value="" style="endArrow=classic;html=1;rounded=0;" edge="1" parent="1">
          <mxGeometry width="50" height="50" relative="1" as="geometry">
            <mxPoint x="1800" y="319.62" as="sourcePoint" />
            <mxPoint x="1840" y="319.62" as="targetPoint" />
          </mxGeometry>
        </mxCell>
        <mxCell id="1HPbtOqM5iS4PaXnbGBT-20" value="Убедиться в надежной и эффективной работе системы безопасности машины" style="text;html=1;align=center;verticalAlign=middle;whiteSpace=wrap;rounded=0;" vertex="1" parent="1">
          <mxGeometry x="1850" y="305" width="230" height="35" as="geometry" />
        </mxCell>
        <mxCell id="1HPbtOqM5iS4PaXnbGBT-22" value="" style="endArrow=none;html=1;rounded=0;exitX=1;exitY=1;exitDx=0;exitDy=0;" edge="1" parent="1" source="1HPbtOqM5iS4PaXnbGBT-17">
          <mxGeometry width="50" height="50" relative="1" as="geometry">
            <mxPoint x="2018" y="520" as="sourcePoint" />
            <mxPoint x="1880" y="400" as="targetPoint" />
            <Array as="points">
              <mxPoint x="1830" y="400" />
              <mxPoint x="1880" y="400" />
            </Array>
          </mxGeometry>
        </mxCell>
        <mxCell id="1HPbtOqM5iS4PaXnbGBT-23" value="" style="endArrow=none;html=1;rounded=0;" edge="1" parent="1">
          <mxGeometry width="50" height="50" relative="1" as="geometry">
            <mxPoint x="1880" y="840" as="sourcePoint" />
            <mxPoint x="1880" y="380" as="targetPoint" />
          </mxGeometry>
        </mxCell>
        <mxCell id="1HPbtOqM5iS4PaXnbGBT-24" value="" style="endArrow=classic;html=1;rounded=0;" edge="1" parent="1">
          <mxGeometry width="50" height="50" relative="1" as="geometry">
            <mxPoint x="1880" y="380" as="sourcePoint" />
            <mxPoint x="1920" y="380" as="targetPoint" />
          </mxGeometry>
        </mxCell>
        <mxCell id="1HPbtOqM5iS4PaXnbGBT-25" value="Удобство навигации меню в автомобиле" style="text;html=1;align=center;verticalAlign=middle;whiteSpace=wrap;rounded=0;" vertex="1" parent="1">
          <mxGeometry x="1930" y="370" width="230" height="30" as="geometry" />
        </mxCell>
        <mxCell id="1HPbtOqM5iS4PaXnbGBT-26" value="" style="endArrow=classic;html=1;rounded=0;" edge="1" parent="1">
          <mxGeometry width="50" height="50" relative="1" as="geometry">
            <mxPoint x="1880" y="440" as="sourcePoint" />
            <mxPoint x="1920" y="440" as="targetPoint" />
          </mxGeometry>
        </mxCell>
        <mxCell id="1HPbtOqM5iS4PaXnbGBT-27" value="Оценка уровня эргономии сидения, руля и педалей" style="text;html=1;align=center;verticalAlign=middle;whiteSpace=wrap;rounded=0;" vertex="1" parent="1">
          <mxGeometry x="1920" y="430" width="310" height="30" as="geometry" />
        </mxCell>
        <mxCell id="1HPbtOqM5iS4PaXnbGBT-29" value="" style="endArrow=classic;html=1;rounded=0;" edge="1" parent="1">
          <mxGeometry width="50" height="50" relative="1" as="geometry">
            <mxPoint x="1880" y="499.62" as="sourcePoint" />
            <mxPoint x="1920" y="499.62" as="targetPoint" />
          </mxGeometry>
        </mxCell>
        <mxCell id="1HPbtOqM5iS4PaXnbGBT-30" value="Проверка работы сигнализации" style="text;html=1;align=center;verticalAlign=middle;whiteSpace=wrap;rounded=0;" vertex="1" parent="1">
          <mxGeometry x="1930" y="485" width="180" height="30" as="geometry" />
        </mxCell>
        <mxCell id="1HPbtOqM5iS4PaXnbGBT-31" value="" style="endArrow=classic;html=1;rounded=0;" edge="1" parent="1">
          <mxGeometry width="50" height="50" relative="1" as="geometry">
            <mxPoint x="1880" y="550" as="sourcePoint" />
            <mxPoint x="1920" y="550" as="targetPoint" />
          </mxGeometry>
        </mxCell>
        <mxCell id="1HPbtOqM5iS4PaXnbGBT-32" value="Совместимость дополнительного оборудования и по" style="text;html=1;align=center;verticalAlign=middle;whiteSpace=wrap;rounded=0;" vertex="1" parent="1">
          <mxGeometry x="1920" y="530" width="300" height="40" as="geometry" />
        </mxCell>
        <mxCell id="1HPbtOqM5iS4PaXnbGBT-33" value="" style="endArrow=classic;html=1;rounded=0;" edge="1" parent="1">
          <mxGeometry width="50" height="50" relative="1" as="geometry">
            <mxPoint x="1880" y="600" as="sourcePoint" />
            <mxPoint x="1920" y="600" as="targetPoint" />
          </mxGeometry>
        </mxCell>
        <mxCell id="1HPbtOqM5iS4PaXnbGBT-34" value="Совместимость телефона, блютуз и тд с системой автомобиля" style="text;html=1;align=center;verticalAlign=middle;whiteSpace=wrap;rounded=0;" vertex="1" parent="1">
          <mxGeometry x="1910" y="590" width="380" height="30" as="geometry" />
        </mxCell>
        <mxCell id="1HPbtOqM5iS4PaXnbGBT-35" value="Тестирование механизма автономного восстановления после сбоя" style="text;html=1;align=center;verticalAlign=middle;whiteSpace=wrap;rounded=0;" vertex="1" parent="1">
          <mxGeometry x="1920" y="660" width="340" height="10" as="geometry" />
        </mxCell>
        <mxCell id="1HPbtOqM5iS4PaXnbGBT-36" value="" style="endArrow=classic;html=1;rounded=0;" edge="1" parent="1">
          <mxGeometry width="50" height="50" relative="1" as="geometry">
            <mxPoint x="1880" y="660" as="sourcePoint" />
            <mxPoint x="1920" y="660" as="targetPoint" />
          </mxGeometry>
        </mxCell>
        <mxCell id="1HPbtOqM5iS4PaXnbGBT-37" value="" style="endArrow=classic;html=1;rounded=0;" edge="1" parent="1">
          <mxGeometry width="50" height="50" relative="1" as="geometry">
            <mxPoint x="1880" y="720" as="sourcePoint" />
            <mxPoint x="1920" y="720" as="targetPoint" />
          </mxGeometry>
        </mxCell>
        <mxCell id="1HPbtOqM5iS4PaXnbGBT-38" value="Отображение информации на различных языках" style="text;html=1;align=center;verticalAlign=middle;whiteSpace=wrap;rounded=0;" vertex="1" parent="1">
          <mxGeometry x="1930" y="710" width="280" height="30" as="geometry" />
        </mxCell>
        <mxCell id="1HPbtOqM5iS4PaXnbGBT-39" value="" style="endArrow=none;html=1;rounded=0;" edge="1" parent="1">
          <mxGeometry width="50" height="50" relative="1" as="geometry">
            <mxPoint x="1880" y="840" as="sourcePoint" />
            <mxPoint x="1960" y="840" as="targetPoint" />
          </mxGeometry>
        </mxCell>
        <mxCell id="1HPbtOqM5iS4PaXnbGBT-40" value="" style="endArrow=none;html=1;rounded=0;" edge="1" parent="1">
          <mxGeometry width="50" height="50" relative="1" as="geometry">
            <mxPoint x="1960" y="960" as="sourcePoint" />
            <mxPoint x="1960" y="800" as="targetPoint" />
          </mxGeometry>
        </mxCell>
        <mxCell id="1HPbtOqM5iS4PaXnbGBT-41" value="" style="endArrow=classic;html=1;rounded=0;" edge="1" parent="1">
          <mxGeometry width="50" height="50" relative="1" as="geometry">
            <mxPoint x="1960" y="800" as="sourcePoint" />
            <mxPoint x="2000" y="800" as="targetPoint" />
          </mxGeometry>
        </mxCell>
        <mxCell id="1HPbtOqM5iS4PaXnbGBT-42" value="Работа двигателя при большой грузоподьемности&amp;nbsp;" style="text;html=1;align=center;verticalAlign=middle;whiteSpace=wrap;rounded=0;" vertex="1" parent="1">
          <mxGeometry x="2000" y="790" width="300" height="30" as="geometry" />
        </mxCell>
        <mxCell id="1HPbtOqM5iS4PaXnbGBT-43" value="" style="endArrow=classic;html=1;rounded=0;" edge="1" parent="1">
          <mxGeometry width="50" height="50" relative="1" as="geometry">
            <mxPoint x="1960" y="840" as="sourcePoint" />
            <mxPoint x="2000" y="840" as="targetPoint" />
          </mxGeometry>
        </mxCell>
        <mxCell id="1HPbtOqM5iS4PaXnbGBT-44" value="Испытания на скользкой или неровной дороге" style="text;html=1;align=center;verticalAlign=middle;whiteSpace=wrap;rounded=0;" vertex="1" parent="1">
          <mxGeometry x="2000" y="830" width="270" height="30" as="geometry" />
        </mxCell>
        <mxCell id="1HPbtOqM5iS4PaXnbGBT-45" value="" style="endArrow=classic;html=1;rounded=0;" edge="1" parent="1">
          <mxGeometry width="50" height="50" relative="1" as="geometry">
            <mxPoint x="1960" y="880" as="sourcePoint" />
            <mxPoint x="2000" y="880" as="targetPoint" />
          </mxGeometry>
        </mxCell>
        <mxCell id="1HPbtOqM5iS4PaXnbGBT-46" value="Проверка долговечности системы при интенсивном использовании" style="text;html=1;align=center;verticalAlign=middle;whiteSpace=wrap;rounded=0;" vertex="1" parent="1">
          <mxGeometry x="2000" y="870" width="300" height="30" as="geometry" />
        </mxCell>
        <mxCell id="1HPbtOqM5iS4PaXnbGBT-47" value="" style="endArrow=classic;html=1;rounded=0;" edge="1" parent="1">
          <mxGeometry width="50" height="50" relative="1" as="geometry">
            <mxPoint x="1960" y="920" as="sourcePoint" />
            <mxPoint x="2000" y="920" as="targetPoint" />
          </mxGeometry>
        </mxCell>
        <mxCell id="1HPbtOqM5iS4PaXnbGBT-48" value="Проверка системы навигации на больших расстояниях" style="text;html=1;align=center;verticalAlign=middle;whiteSpace=wrap;rounded=0;" vertex="1" parent="1">
          <mxGeometry x="2000" y="910" width="312" height="30" as="geometry" />
        </mxCell>
        <mxCell id="1HPbtOqM5iS4PaXnbGBT-49" value="" style="endArrow=classic;html=1;rounded=0;" edge="1" parent="1">
          <mxGeometry width="50" height="50" relative="1" as="geometry">
            <mxPoint x="1960" y="960" as="sourcePoint" />
            <mxPoint x="2000" y="960" as="targetPoint" />
          </mxGeometry>
        </mxCell>
        <mxCell id="1HPbtOqM5iS4PaXnbGBT-52" value="Проверка работы при увеличении количества подключенных устройств&amp;nbsp;" style="text;html=1;align=center;verticalAlign=middle;whiteSpace=wrap;rounded=0;" vertex="1" parent="1">
          <mxGeometry x="2001" y="950" width="310" height="30" as="geometry" />
        </mxCell>
        <mxCell id="1HPbtOqM5iS4PaXnbGBT-53" value="" style="endArrow=none;html=1;rounded=0;entryX=0.417;entryY=1;entryDx=0;entryDy=0;entryPerimeter=0;" edge="1" parent="1" target="Pzo5eB3ryecymC6UtlE7-1">
          <mxGeometry width="50" height="50" relative="1" as="geometry">
            <mxPoint x="1560" y="920" as="sourcePoint" />
            <mxPoint x="1620" y="770" as="targetPoint" />
          </mxGeometry>
        </mxCell>
        <mxCell id="1HPbtOqM5iS4PaXnbGBT-54" value="По хронологии выполнения" style="text;html=1;align=center;verticalAlign=middle;whiteSpace=wrap;rounded=0;" vertex="1" parent="1">
          <mxGeometry x="1554" y="870" width="100" height="30" as="geometry" />
        </mxCell>
        <mxCell id="1HPbtOqM5iS4PaXnbGBT-55" value="" style="endArrow=none;html=1;rounded=0;" edge="1" parent="1">
          <mxGeometry width="50" height="50" relative="1" as="geometry">
            <mxPoint x="1400" y="920" as="sourcePoint" />
            <mxPoint x="1740" y="920" as="targetPoint" />
          </mxGeometry>
        </mxCell>
        <mxCell id="1HPbtOqM5iS4PaXnbGBT-56" value="" style="endArrow=classic;html=1;rounded=0;" edge="1" parent="1">
          <mxGeometry width="50" height="50" relative="1" as="geometry">
            <mxPoint x="1400" y="920" as="sourcePoint" />
            <mxPoint x="1400" y="960" as="targetPoint" />
          </mxGeometry>
        </mxCell>
        <mxCell id="1HPbtOqM5iS4PaXnbGBT-57" value="Работоспособность в различных условиях" style="text;html=1;align=center;verticalAlign=middle;whiteSpace=wrap;rounded=0;" vertex="1" parent="1">
          <mxGeometry x="1330" y="960" width="120" height="40" as="geometry" />
        </mxCell>
        <mxCell id="1HPbtOqM5iS4PaXnbGBT-58" value="" style="endArrow=classic;html=1;rounded=0;" edge="1" parent="1">
          <mxGeometry width="50" height="50" relative="1" as="geometry">
            <mxPoint x="1460" y="920" as="sourcePoint" />
            <mxPoint x="1460" y="1020" as="targetPoint" />
          </mxGeometry>
        </mxCell>
        <mxCell id="1HPbtOqM5iS4PaXnbGBT-59" value="Соответствие документации" style="text;html=1;align=center;verticalAlign=middle;whiteSpace=wrap;rounded=0;" vertex="1" parent="1">
          <mxGeometry x="1410" y="1020" width="90" height="40" as="geometry" />
        </mxCell>
        <mxCell id="1HPbtOqM5iS4PaXnbGBT-60" value="" style="endArrow=classic;html=1;rounded=0;" edge="1" parent="1">
          <mxGeometry width="50" height="50" relative="1" as="geometry">
            <mxPoint x="1520" y="920" as="sourcePoint" />
            <mxPoint x="1520" y="960" as="targetPoint" />
          </mxGeometry>
        </mxCell>
        <mxCell id="1HPbtOqM5iS4PaXnbGBT-61" value="Тестирование систем безопасности&amp;nbsp;&lt;span style=&quot;background-color: initial;&quot;&gt;&amp;nbsp;&lt;/span&gt;" style="text;html=1;align=center;verticalAlign=middle;whiteSpace=wrap;rounded=0;" vertex="1" parent="1">
          <mxGeometry x="1494" y="965" width="60" height="30" as="geometry" />
        </mxCell>
        <mxCell id="1HPbtOqM5iS4PaXnbGBT-62" value="" style="endArrow=classic;html=1;rounded=0;" edge="1" parent="1">
          <mxGeometry width="50" height="50" relative="1" as="geometry">
            <mxPoint x="1590" y="920" as="sourcePoint" />
            <mxPoint x="1590" y="1020" as="targetPoint" />
          </mxGeometry>
        </mxCell>
        <mxCell id="1HPbtOqM5iS4PaXnbGBT-63" value="Исправление выявленных ошибок&amp;nbsp;" style="text;html=1;align=center;verticalAlign=middle;whiteSpace=wrap;rounded=0;" vertex="1" parent="1">
          <mxGeometry x="1554" y="1030" width="60" height="30" as="geometry" />
        </mxCell>
        <mxCell id="1HPbtOqM5iS4PaXnbGBT-64" value="" style="endArrow=classic;html=1;rounded=0;" edge="1" parent="1">
          <mxGeometry width="50" height="50" relative="1" as="geometry">
            <mxPoint x="1654" y="920" as="sourcePoint" />
            <mxPoint x="1654" y="960" as="targetPoint" />
          </mxGeometry>
        </mxCell>
        <mxCell id="1HPbtOqM5iS4PaXnbGBT-65" value="Тестирование новых изменений на старую функциональной" style="text;html=1;align=center;verticalAlign=middle;whiteSpace=wrap;rounded=0;" vertex="1" parent="1">
          <mxGeometry x="1594" y="960" width="116" height="55" as="geometry" />
        </mxCell>
        <mxCell id="1HPbtOqM5iS4PaXnbGBT-66" value="" style="endArrow=classic;html=1;rounded=0;" edge="1" parent="1">
          <mxGeometry width="50" height="50" relative="1" as="geometry">
            <mxPoint x="1740" y="920" as="sourcePoint" />
            <mxPoint x="1740" y="1020" as="targetPoint" />
          </mxGeometry>
        </mxCell>
        <mxCell id="1HPbtOqM5iS4PaXnbGBT-67" value="Утверждение качества и готовности машины" style="text;html=1;align=center;verticalAlign=middle;whiteSpace=wrap;rounded=0;" vertex="1" parent="1">
          <mxGeometry x="1690" y="1030" width="100" height="55" as="geometry" />
        </mxCell>
        <mxCell id="1HPbtOqM5iS4PaXnbGBT-68" value="" style="endArrow=none;html=1;rounded=0;exitX=0.641;exitY=-0.081;exitDx=0;exitDy=0;exitPerimeter=0;" edge="1" parent="1" source="Pzo5eB3ryecymC6UtlE7-1">
          <mxGeometry width="50" height="50" relative="1" as="geometry">
            <mxPoint x="1710" y="770" as="sourcePoint" />
            <mxPoint x="1890" y="220" as="targetPoint" />
            <Array as="points">
              <mxPoint x="1750" y="220" />
            </Array>
          </mxGeometry>
        </mxCell>
        <mxCell id="1HPbtOqM5iS4PaXnbGBT-69" value="По разработке тестовых сценариев" style="text;html=1;align=center;verticalAlign=middle;whiteSpace=wrap;rounded=0;" vertex="1" parent="1">
          <mxGeometry x="1740" y="190" width="140" height="30" as="geometry" />
        </mxCell>
        <mxCell id="1HPbtOqM5iS4PaXnbGBT-70" value="" style="endArrow=none;html=1;rounded=0;" edge="1" parent="1">
          <mxGeometry width="50" height="50" relative="1" as="geometry">
            <mxPoint x="1890" y="280" as="sourcePoint" />
            <mxPoint x="1890" y="190" as="targetPoint" />
          </mxGeometry>
        </mxCell>
        <mxCell id="1HPbtOqM5iS4PaXnbGBT-71" value="" style="endArrow=classic;html=1;rounded=0;" edge="1" parent="1">
          <mxGeometry width="50" height="50" relative="1" as="geometry">
            <mxPoint x="1890" y="190" as="sourcePoint" />
            <mxPoint x="1930" y="190" as="targetPoint" />
          </mxGeometry>
        </mxCell>
        <mxCell id="1HPbtOqM5iS4PaXnbGBT-72" value="Изучение требований к автомобилю" style="text;html=1;align=center;verticalAlign=middle;whiteSpace=wrap;rounded=0;" vertex="1" parent="1">
          <mxGeometry x="1930" y="180" width="255" height="30" as="geometry" />
        </mxCell>
        <mxCell id="1HPbtOqM5iS4PaXnbGBT-73" value="" style="endArrow=classic;html=1;rounded=0;" edge="1" parent="1">
          <mxGeometry width="50" height="50" relative="1" as="geometry">
            <mxPoint x="1890" y="240" as="sourcePoint" />
            <mxPoint x="1930" y="240" as="targetPoint" />
          </mxGeometry>
        </mxCell>
        <mxCell id="1HPbtOqM5iS4PaXnbGBT-74" value="" style="endArrow=classic;html=1;rounded=0;" edge="1" parent="1">
          <mxGeometry width="50" height="50" relative="1" as="geometry">
            <mxPoint x="1890" y="279.39" as="sourcePoint" />
            <mxPoint x="1930" y="279.39" as="targetPoint" />
          </mxGeometry>
        </mxCell>
        <mxCell id="1HPbtOqM5iS4PaXnbGBT-75" value="В реальных условиях проверка работы" style="text;html=1;align=center;verticalAlign=middle;whiteSpace=wrap;rounded=0;" vertex="1" parent="1">
          <mxGeometry x="1920" y="220" width="265" height="30" as="geometry" />
        </mxCell>
        <mxCell id="1HPbtOqM5iS4PaXnbGBT-76" value="Создание модели для тестирования в виртуальной среде&amp;nbsp;" style="text;html=1;align=center;verticalAlign=middle;whiteSpace=wrap;rounded=0;" vertex="1" parent="1">
          <mxGeometry x="1935" y="270" width="305" height="35" as="geometry" />
        </mxCell>
        <mxCell id="1HPbtOqM5iS4PaXnbGBT-77" value="&lt;span style=&quot;font-family: Arial, sans-serif; font-size: 16px; text-align: start;&quot;&gt;black box&lt;/span&gt;" style="text;html=1;align=center;verticalAlign=middle;whiteSpace=wrap;rounded=0;" vertex="1" parent="1">
          <mxGeometry x="1120" y="50" width="80" as="geometry" />
        </mxCell>
        <mxCell id="1HPbtOqM5iS4PaXnbGBT-78" value="&lt;span style=&quot;color: rgb(0, 0, 0); font-family: Arial, sans-serif; font-size: 16px; font-style: normal; font-variant-ligatures: normal; font-variant-caps: normal; font-weight: 400; letter-spacing: normal; orphans: 2; text-align: start; text-indent: 0px; text-transform: none; widows: 2; word-spacing: 0px; -webkit-text-stroke-width: 0px; white-space: normal; text-decoration-thickness: initial; text-decoration-style: initial; text-decoration-color: initial; display: inline !important; float: none;&quot;&gt;white box&lt;/span&gt;" style="text;whiteSpace=wrap;html=1;" vertex="1" parent="1">
          <mxGeometry x="1125" y="70" width="70" height="50" as="geometry" />
        </mxCell>
        <mxCell id="1HPbtOqM5iS4PaXnbGBT-80" value="&lt;span style=&quot;color: rgb(0, 0, 0); font-family: Arial, sans-serif; font-size: 16px; font-style: normal; font-variant-ligatures: normal; font-variant-caps: normal; font-weight: 400; letter-spacing: normal; orphans: 2; text-align: start; text-indent: 0px; text-transform: none; widows: 2; word-spacing: 0px; -webkit-text-stroke-width: 0px; white-space: normal; text-decoration-thickness: initial; text-decoration-style: initial; text-decoration-color: initial; display: inline !important; float: none;&quot;&gt;grey box&lt;/span&gt;" style="text;whiteSpace=wrap;html=1;" vertex="1" parent="1">
          <mxGeometry x="1130" y="110" width="90" height="40" as="geometry" />
        </mxCell>
        <mxCell id="1HPbtOqM5iS4PaXnbGBT-81" value="&lt;span style=&quot;color: rgb(0, 0, 0); font-family: Arial, sans-serif; font-size: 16px; font-style: normal; font-variant-ligatures: normal; font-variant-caps: normal; font-weight: 400; letter-spacing: normal; orphans: 2; text-align: start; text-indent: 0px; text-transform: none; widows: 2; word-spacing: 0px; -webkit-text-stroke-width: 0px; white-space: normal; text-decoration-thickness: initial; text-decoration-style: initial; text-decoration-color: initial; display: inline !important; float: none;&quot;&gt;manual testing&lt;/span&gt;" style="text;whiteSpace=wrap;html=1;" vertex="1" parent="1">
          <mxGeometry x="1100" y="290" width="140" height="40" as="geometry" />
        </mxCell>
        <mxCell id="1HPbtOqM5iS4PaXnbGBT-82" value="&lt;span style=&quot;color: rgb(0, 0, 0); font-family: Arial, sans-serif; font-size: 16px; font-style: normal; font-variant-ligatures: normal; font-variant-caps: normal; font-weight: 400; letter-spacing: normal; orphans: 2; text-align: start; text-indent: 0px; text-transform: none; widows: 2; word-spacing: 0px; -webkit-text-stroke-width: 0px; white-space: normal; text-decoration-thickness: initial; text-decoration-style: initial; text-decoration-color: initial; display: inline !important; float: none;&quot;&gt;automated testing&lt;/span&gt;" style="text;whiteSpace=wrap;html=1;" vertex="1" parent="1">
          <mxGeometry x="1070" y="370" width="160" height="40" as="geometry" />
        </mxCell>
        <mxCell id="1HPbtOqM5iS4PaXnbGBT-83" value="&lt;span style=&quot;color: rgb(0, 0, 0); font-family: Arial, sans-serif; font-size: 16px; font-style: normal; font-variant-ligatures: normal; font-variant-caps: normal; font-weight: 400; letter-spacing: normal; orphans: 2; text-align: start; text-indent: 0px; text-transform: none; widows: 2; word-spacing: 0px; -webkit-text-stroke-width: 0px; white-space: normal; text-decoration-thickness: initial; text-decoration-style: initial; text-decoration-color: initial; display: inline !important; float: none;&quot;&gt;semiautomated testing&lt;/span&gt;" style="text;whiteSpace=wrap;html=1;" vertex="1" parent="1">
          <mxGeometry x="1035" y="330" width="190" height="40" as="geometry" />
        </mxCell>
        <mxCell id="1HPbtOqM5iS4PaXnbGBT-84" value="&lt;span style=&quot;color: rgb(0, 0, 0); font-family: Arial, sans-serif; font-size: 16px; font-style: normal; font-variant-ligatures: normal; font-variant-caps: normal; font-weight: 400; letter-spacing: normal; orphans: 2; text-align: start; text-indent: 0px; text-transform: none; widows: 2; word-spacing: 0px; -webkit-text-stroke-width: 0px; white-space: normal; text-decoration-thickness: initial; text-decoration-style: initial; text-decoration-color: initial; display: inline !important; float: none;&quot;&gt;component/unit testing&lt;/span&gt;" style="text;whiteSpace=wrap;html=1;" vertex="1" parent="1">
          <mxGeometry x="1115" y="550" width="190" height="40" as="geometry" />
        </mxCell>
        <mxCell id="1HPbtOqM5iS4PaXnbGBT-85" value="&lt;span style=&quot;color: rgb(0, 0, 0); font-family: Arial, sans-serif; font-size: 16px; font-style: normal; font-variant-ligatures: normal; font-variant-caps: normal; font-weight: 400; letter-spacing: normal; orphans: 2; text-align: start; text-indent: 0px; text-transform: none; widows: 2; word-spacing: 0px; -webkit-text-stroke-width: 0px; white-space: normal; text-decoration-thickness: initial; text-decoration-style: initial; text-decoration-color: initial; display: inline !important; float: none;&quot;&gt;integration testing&lt;/span&gt;" style="text;whiteSpace=wrap;html=1;" vertex="1" parent="1">
          <mxGeometry x="1130" y="600" width="160" height="40" as="geometry" />
        </mxCell>
        <mxCell id="1HPbtOqM5iS4PaXnbGBT-86" value="&lt;span style=&quot;color: rgb(0, 0, 0); font-family: Arial, sans-serif; font-size: 16px; font-style: normal; font-variant-ligatures: normal; font-variant-caps: normal; font-weight: 400; letter-spacing: normal; orphans: 2; text-align: start; text-indent: 0px; text-transform: none; widows: 2; word-spacing: 0px; -webkit-text-stroke-width: 0px; white-space: normal; text-decoration-thickness: initial; text-decoration-style: initial; text-decoration-color: initial; display: inline !important; float: none;&quot;&gt;system/end-to-end testing&lt;/span&gt;" style="text;whiteSpace=wrap;html=1;" vertex="1" parent="1">
          <mxGeometry x="1090" y="650" width="220" height="40" as="geometry" />
        </mxCell>
        <mxCell id="1HPbtOqM5iS4PaXnbGBT-88" value="&lt;span style=&quot;color: rgb(0, 0, 0); font-family: Arial, sans-serif; font-size: 16px; font-style: normal; font-variant-ligatures: normal; font-variant-caps: normal; font-weight: 400; letter-spacing: normal; orphans: 2; text-align: start; text-indent: 0px; text-transform: none; widows: 2; word-spacing: 0px; -webkit-text-stroke-width: 0px; white-space: normal; text-decoration-thickness: initial; text-decoration-style: initial; text-decoration-color: initial; display: inline !important; float: none;&quot;&gt;alpha testing&lt;/span&gt;" style="text;whiteSpace=wrap;html=1;" vertex="1" parent="1">
          <mxGeometry x="1100" y="430" width="120" height="40" as="geometry" />
        </mxCell>
        <mxCell id="1HPbtOqM5iS4PaXnbGBT-89" value="&lt;span style=&quot;color: rgb(0, 0, 0); font-family: Arial, sans-serif; font-size: 16px; font-style: normal; font-variant-ligatures: normal; font-variant-caps: normal; font-weight: 400; letter-spacing: normal; orphans: 2; text-align: start; text-indent: 0px; text-transform: none; widows: 2; word-spacing: 0px; -webkit-text-stroke-width: 0px; white-space: normal; text-decoration-thickness: initial; text-decoration-style: initial; text-decoration-color: initial; display: inline !important; float: none;&quot;&gt;beta testing&lt;/span&gt;" style="text;whiteSpace=wrap;html=1;" vertex="1" parent="1">
          <mxGeometry x="1100" y="485" width="120" height="40" as="geometry" />
        </mxCell>
        <mxCell id="1HPbtOqM5iS4PaXnbGBT-90" value="&lt;span style=&quot;color: rgb(0, 0, 0); font-family: Arial, sans-serif; font-size: 16px; font-style: normal; font-variant-ligatures: normal; font-variant-caps: normal; font-weight: 400; letter-spacing: normal; orphans: 2; text-align: start; text-indent: 0px; text-transform: none; widows: 2; word-spacing: 0px; -webkit-text-stroke-width: 0px; white-space: normal; text-decoration-thickness: initial; text-decoration-style: initial; text-decoration-color: initial; display: inline !important; float: none;&quot;&gt;positive testing&lt;/span&gt;" style="text;whiteSpace=wrap;html=1;" vertex="1" parent="1">
          <mxGeometry x="1080" y="180" width="140" height="40" as="geometry" />
        </mxCell>
        <mxCell id="1HPbtOqM5iS4PaXnbGBT-92" value="&lt;span style=&quot;color: rgb(0, 0, 0); font-family: Arial, sans-serif; font-size: 16px; font-style: normal; font-variant-ligatures: normal; font-variant-caps: normal; font-weight: 400; letter-spacing: normal; orphans: 2; text-align: start; text-indent: 0px; text-transform: none; widows: 2; word-spacing: 0px; -webkit-text-stroke-width: 0px; white-space: normal; text-decoration-thickness: initial; text-decoration-style: initial; text-decoration-color: initial; display: inline !important; float: none;&quot;&gt;negative testing&lt;/span&gt;" style="text;whiteSpace=wrap;html=1;" vertex="1" parent="1">
          <mxGeometry x="1080" y="230" width="150" height="40" as="geometry" />
        </mxCell>
        <mxCell id="1HPbtOqM5iS4PaXnbGBT-93" value="&lt;span style=&quot;color: rgb(0, 0, 0); font-family: Arial, sans-serif; font-size: 16px; font-style: normal; font-variant-ligatures: normal; font-variant-caps: normal; font-weight: 400; letter-spacing: normal; orphans: 2; text-align: start; text-indent: 0px; text-transform: none; widows: 2; word-spacing: 0px; -webkit-text-stroke-width: 0px; white-space: normal; text-decoration-thickness: initial; text-decoration-style: initial; text-decoration-color: initial; display: inline !important; float: none;&quot;&gt;stress testing&lt;/span&gt;" style="text;whiteSpace=wrap;html=1;" vertex="1" parent="1">
          <mxGeometry x="1960" y="850" width="130" height="40" as="geometry" />
        </mxCell>
        <mxCell id="1HPbtOqM5iS4PaXnbGBT-95" value="&lt;span style=&quot;color: rgb(0, 0, 0); font-family: Arial, sans-serif; font-size: 16px; font-style: normal; font-variant-ligatures: normal; font-variant-caps: normal; font-weight: 400; letter-spacing: normal; orphans: 2; text-align: start; text-indent: 0px; text-transform: none; widows: 2; word-spacing: 0px; -webkit-text-stroke-width: 0px; white-space: normal; text-decoration-thickness: initial; text-decoration-style: initial; text-decoration-color: initial; display: inline !important; float: none;&quot;&gt;stability&lt;span&gt;&amp;nbsp;&lt;/span&gt;&lt;/span&gt;&lt;span style=&quot;font-family: Arial, sans-serif; font-size: 16px;&quot;&gt;testing&lt;/span&gt;" style="text;whiteSpace=wrap;html=1;" vertex="1" parent="1">
          <mxGeometry x="1960" y="810" width="90" height="40" as="geometry" />
        </mxCell>
        <mxCell id="1HPbtOqM5iS4PaXnbGBT-96" value="&lt;span style=&quot;color: rgb(0, 0, 0); font-family: Arial, sans-serif; font-size: 16px; font-style: normal; font-variant-ligatures: normal; font-variant-caps: normal; font-weight: 400; letter-spacing: normal; orphans: 2; text-align: start; text-indent: 0px; text-transform: none; widows: 2; word-spacing: 0px; -webkit-text-stroke-width: 0px; white-space: normal; text-decoration-thickness: initial; text-decoration-style: initial; text-decoration-color: initial; display: inline !important; float: none;&quot;&gt;localization testing&lt;/span&gt;" style="text;whiteSpace=wrap;html=1;" vertex="1" parent="1">
          <mxGeometry x="1885" y="690" width="160" height="40" as="geometry" />
        </mxCell>
        <mxCell id="1HPbtOqM5iS4PaXnbGBT-97" value="&lt;span style=&quot;color: rgb(0, 0, 0); font-family: Arial, sans-serif; font-size: 16px; font-style: normal; font-variant-ligatures: normal; font-variant-caps: normal; font-weight: 400; letter-spacing: normal; orphans: 2; text-align: start; text-indent: 0px; text-transform: none; widows: 2; word-spacing: 0px; -webkit-text-stroke-width: 0px; white-space: normal; text-decoration-thickness: initial; text-decoration-style: initial; text-decoration-color: initial; display: inline !important; float: none;&quot;&gt;compatibility testing&lt;/span&gt;" style="text;whiteSpace=wrap;html=1;" vertex="1" parent="1">
          <mxGeometry x="1880" y="570" width="170" height="40" as="geometry" />
        </mxCell>
        <mxCell id="1HPbtOqM5iS4PaXnbGBT-98" value="&lt;span style=&quot;color: rgb(0, 0, 0); font-family: Arial, sans-serif; font-size: 16px; font-style: normal; font-variant-ligatures: normal; font-variant-caps: normal; font-weight: 400; letter-spacing: normal; orphans: 2; text-align: start; text-indent: 0px; text-transform: none; widows: 2; word-spacing: 0px; -webkit-text-stroke-width: 0px; white-space: normal; text-decoration-thickness: initial; text-decoration-style: initial; text-decoration-color: initial; display: inline !important; float: none;&quot;&gt;functional testing&lt;/span&gt;" style="text;whiteSpace=wrap;html=1;" vertex="1" parent="1">
          <mxGeometry x="1770" y="280" width="150" height="40" as="geometry" />
        </mxCell>
        <mxCell id="1HPbtOqM5iS4PaXnbGBT-99" value="&lt;span style=&quot;color: rgb(0, 0, 0); font-family: Arial, sans-serif; font-size: 16px; font-style: normal; font-variant-ligatures: normal; font-variant-caps: normal; font-weight: 400; letter-spacing: normal; orphans: 2; text-align: start; text-indent: 0px; text-transform: none; widows: 2; word-spacing: 0px; -webkit-text-stroke-width: 0px; white-space: normal; text-decoration-thickness: initial; text-decoration-style: initial; text-decoration-color: initial; display: inline !important; float: none;&quot;&gt;performance&amp;nbsp;&lt;/span&gt;&lt;div&gt;&lt;span style=&quot;color: rgb(0, 0, 0); font-family: Arial, sans-serif; font-size: 16px; font-style: normal; font-variant-ligatures: normal; font-variant-caps: normal; font-weight: 400; letter-spacing: normal; orphans: 2; text-align: start; text-indent: 0px; text-transform: none; widows: 2; word-spacing: 0px; -webkit-text-stroke-width: 0px; white-space: normal; text-decoration-thickness: initial; text-decoration-style: initial; text-decoration-color: initial; display: inline !important; float: none;&quot;&gt;testing&lt;/span&gt;&lt;/div&gt;" style="text;whiteSpace=wrap;html=1;" vertex="1" parent="1">
          <mxGeometry x="1850" y="840" width="170" height="40" as="geometry" />
        </mxCell>
        <mxCell id="1HPbtOqM5iS4PaXnbGBT-101" value="&lt;span style=&quot;color: rgb(0, 0, 0); font-family: Arial, sans-serif; font-size: 16px; font-style: normal; font-variant-ligatures: normal; font-variant-caps: normal; font-weight: 400; letter-spacing: normal; orphans: 2; text-align: start; text-indent: 0px; text-transform: none; widows: 2; word-spacing: 0px; -webkit-text-stroke-width: 0px; white-space: normal; text-decoration-thickness: initial; text-decoration-style: initial; text-decoration-color: initial; display: inline !important; float: none;&quot;&gt;load testing&lt;/span&gt;" style="text;whiteSpace=wrap;html=1;" vertex="1" parent="1">
          <mxGeometry x="1955" y="770" width="120" height="40" as="geometry" />
        </mxCell>
        <mxCell id="1HPbtOqM5iS4PaXnbGBT-102" value="&lt;span style=&quot;color: rgb(0, 0, 0); font-family: Arial, sans-serif; font-size: 16px; font-style: normal; font-variant-ligatures: normal; font-variant-caps: normal; font-weight: 400; letter-spacing: normal; orphans: 2; text-align: start; text-indent: 0px; text-transform: none; widows: 2; word-spacing: 0px; -webkit-text-stroke-width: 0px; white-space: normal; text-decoration-thickness: initial; text-decoration-style: initial; text-decoration-color: initial; display: inline !important; float: none;&quot;&gt;UI testing&lt;/span&gt;" style="text;whiteSpace=wrap;html=1;" vertex="1" parent="1">
          <mxGeometry x="1880" y="350" width="100" height="40" as="geometry" />
        </mxCell>
        <mxCell id="1HPbtOqM5iS4PaXnbGBT-103" value="&lt;span style=&quot;color: rgb(0, 0, 0); font-family: Arial, sans-serif; font-size: 16px; font-style: normal; font-variant-ligatures: normal; font-variant-caps: normal; font-weight: 400; letter-spacing: normal; orphans: 2; text-align: start; text-indent: 0px; text-transform: none; widows: 2; word-spacing: 0px; -webkit-text-stroke-width: 0px; white-space: normal; text-decoration-thickness: initial; text-decoration-style: initial; text-decoration-color: initial; display: inline !important; float: none;&quot;&gt;security testing&lt;/span&gt;" style="text;whiteSpace=wrap;html=1;" vertex="1" parent="1">
          <mxGeometry x="1880" y="470" width="140" height="40" as="geometry" />
        </mxCell>
        <mxCell id="1HPbtOqM5iS4PaXnbGBT-104" value="&lt;span style=&quot;color: rgb(0, 0, 0); font-family: Arial, sans-serif; font-size: 16px; font-style: normal; font-variant-ligatures: normal; font-variant-caps: normal; font-weight: 400; letter-spacing: normal; orphans: 2; text-align: start; text-indent: 0px; text-transform: none; widows: 2; word-spacing: 0px; -webkit-text-stroke-width: 0px; white-space: normal; text-decoration-thickness: initial; text-decoration-style: initial; text-decoration-color: initial; display: inline !important; float: none;&quot;&gt;usability testing&lt;/span&gt;" style="text;whiteSpace=wrap;html=1;" vertex="1" parent="1">
          <mxGeometry x="1880" y="410" width="140" height="40" as="geometry" />
        </mxCell>
        <mxCell id="1HPbtOqM5iS4PaXnbGBT-106" value="&lt;span style=&quot;color: rgb(0, 0, 0); font-family: Arial, sans-serif; font-size: 16px; font-style: normal; font-variant-ligatures: normal; font-variant-caps: normal; font-weight: 400; letter-spacing: normal; orphans: 2; text-align: start; text-indent: 0px; text-transform: none; widows: 2; word-spacing: 0px; -webkit-text-stroke-width: 0px; white-space: normal; text-decoration-thickness: initial; text-decoration-style: initial; text-decoration-color: initial; display: inline !important; float: none;&quot;&gt;non-functional testing&lt;/span&gt;" style="text;whiteSpace=wrap;html=1;" vertex="1" parent="1">
          <mxGeometry x="1758" y="400" width="150" height="40" as="geometry" />
        </mxCell>
        <mxCell id="1HPbtOqM5iS4PaXnbGBT-108" value="&lt;span style=&quot;color: rgb(58, 58, 58); font-family: Inter, sans-serif; font-size: 16px; text-align: start; background-color: rgb(255, 255, 255);&quot;&gt;exploratory testing&lt;/span&gt;" style="text;html=1;align=center;verticalAlign=middle;whiteSpace=wrap;rounded=0;" vertex="1" parent="1">
          <mxGeometry x="1185" y="770" width="160" height="40" as="geometry" />
        </mxCell>
        <mxCell id="1HPbtOqM5iS4PaXnbGBT-109" value="&lt;span style=&quot;color: rgb(58, 58, 58); font-family: Inter, sans-serif; font-size: 16px; font-style: normal; font-variant-ligatures: normal; font-variant-caps: normal; font-weight: 400; letter-spacing: normal; orphans: 2; text-align: start; text-indent: 0px; text-transform: none; widows: 2; word-spacing: 0px; -webkit-text-stroke-width: 0px; white-space: normal; background-color: rgb(255, 255, 255); text-decoration-thickness: initial; text-decoration-style: initial; text-decoration-color: initial; display: inline !important; float: none;&quot;&gt;ad hoc testing&lt;/span&gt;" style="text;whiteSpace=wrap;html=1;" vertex="1" parent="1">
          <mxGeometry x="1270" y="820" width="130" height="40" as="geometry" />
        </mxCell>
        <mxCell id="1HPbtOqM5iS4PaXnbGBT-110" value="&lt;span style=&quot;color: rgb(58, 58, 58); font-family: Inter, sans-serif; font-size: 16px; font-style: normal; font-variant-ligatures: normal; font-variant-caps: normal; font-weight: 400; letter-spacing: normal; orphans: 2; text-align: start; text-indent: 0px; text-transform: none; widows: 2; word-spacing: 0px; -webkit-text-stroke-width: 0px; white-space: normal; background-color: rgb(255, 255, 255); text-decoration-thickness: initial; text-decoration-style: initial; text-decoration-color: initial; display: inline !important; float: none;&quot;&gt;scripted testing&lt;/span&gt;" style="text;whiteSpace=wrap;html=1;" vertex="1" parent="1">
          <mxGeometry x="1195" y="720" width="140" height="40" as="geometry" />
        </mxCell>
        <mxCell id="1HPbtOqM5iS4PaXnbGBT-111" value="&lt;span style=&quot;box-sizing: border-box; border: 0px; font-style: normal; margin: 0px; outline: 0px; padding: 0px; vertical-align: baseline; color: rgb(58, 58, 58); font-family: Inter, sans-serif; font-variant-ligatures: normal; font-variant-caps: normal; letter-spacing: normal; orphans: 2; text-align: start; text-indent: 0px; text-transform: none; widows: 2; word-spacing: 0px; -webkit-text-stroke-width: 0px; white-space: normal; background-color: rgb(255, 255, 255); text-decoration-thickness: initial; text-decoration-style: initial; text-decoration-color: initial;&quot;&gt;&lt;font style=&quot;font-size: 14px;&quot;&gt;static testing&lt;/font&gt;&lt;/span&gt;&lt;div&gt;&lt;span style=&quot;box-sizing: border-box; border: 0px; font-style: normal; margin: 0px; outline: 0px; padding: 0px; vertical-align: baseline; color: rgb(58, 58, 58); font-family: Inter, sans-serif; font-variant-ligatures: normal; font-variant-caps: normal; letter-spacing: normal; orphans: 2; text-align: start; text-indent: 0px; text-transform: none; widows: 2; word-spacing: 0px; -webkit-text-stroke-width: 0px; white-space: normal; background-color: rgb(255, 255, 255); text-decoration-thickness: initial; text-decoration-style: initial; text-decoration-color: initial;&quot;&gt;&lt;font style=&quot;font-size: 14px;&quot;&gt;(verification)&lt;/font&gt;&lt;/span&gt;&lt;/div&gt;" style="text;whiteSpace=wrap;html=1;" vertex="1" parent="1">
          <mxGeometry x="1677.5" y="-10" width="85" height="40" as="geometry" />
        </mxCell>
        <mxCell id="1HPbtOqM5iS4PaXnbGBT-112" value="&lt;span style=&quot;color: rgb(58, 58, 58); font-family: Inter, sans-serif; font-style: normal; font-variant-ligatures: normal; font-variant-caps: normal; font-weight: 400; letter-spacing: normal; orphans: 2; text-align: start; text-indent: 0px; text-transform: none; widows: 2; word-spacing: 0px; -webkit-text-stroke-width: 0px; white-space: normal; background-color: rgb(255, 255, 255); text-decoration-thickness: initial; text-decoration-style: initial; text-decoration-color: initial; float: none; display: inline !important;&quot;&gt;&lt;font style=&quot;font-size: 14px;&quot;&gt;dynamic testing (validation)&lt;/font&gt;&lt;/span&gt;" style="text;whiteSpace=wrap;html=1;" vertex="1" parent="1">
          <mxGeometry x="1670" y="130" width="100" height="40" as="geometry" />
        </mxCell>
        <mxCell id="1HPbtOqM5iS4PaXnbGBT-113" value="&lt;span style=&quot;color: rgb(58, 58, 58); font-family: Inter, sans-serif; font-style: normal; font-variant-ligatures: normal; font-variant-caps: normal; font-weight: 400; letter-spacing: normal; orphans: 2; text-align: start; text-indent: 0px; text-transform: none; widows: 2; word-spacing: 0px; -webkit-text-stroke-width: 0px; white-space: normal; background-color: rgb(255, 255, 255); text-decoration-thickness: initial; text-decoration-style: initial; text-decoration-color: initial; float: none; display: inline !important;&quot;&gt;&lt;font style=&quot;font-size: 14px;&quot;&gt;Static Analysis&lt;/font&gt;&lt;/span&gt;" style="text;whiteSpace=wrap;html=1;" vertex="1" parent="1">
          <mxGeometry x="1770" y="-10" width="140" height="40" as="geometry" />
        </mxCell>
        <mxCell id="1HPbtOqM5iS4PaXnbGBT-114" value="&lt;span style=&quot;box-sizing: border-box; border: 0px; font-style: normal; margin: 0px; outline: 0px; padding: 0px; vertical-align: baseline; color: rgb(58, 58, 58); font-family: Inter, sans-serif; font-variant-ligatures: normal; font-variant-caps: normal; letter-spacing: normal; orphans: 2; text-align: start; text-indent: 0px; text-transform: none; widows: 2; word-spacing: 0px; -webkit-text-stroke-width: 0px; white-space: normal; background-color: rgb(255, 255, 255); text-decoration-thickness: initial; text-decoration-style: initial; text-decoration-color: initial;&quot;&gt;&lt;font style=&quot;font-size: 14px;&quot;&gt;Review&lt;/font&gt;&lt;/span&gt;" style="text;whiteSpace=wrap;html=1;" vertex="1" parent="1">
          <mxGeometry x="1770" y="70" width="90" height="40" as="geometry" />
        </mxCell>
        <mxCell id="1HPbtOqM5iS4PaXnbGBT-116" value="&lt;span style=&quot;color: rgb(0, 0, 0); font-family: Arial, sans-serif; font-size: 16px; font-style: normal; font-variant-ligatures: normal; font-variant-caps: normal; font-weight: 400; letter-spacing: normal; orphans: 2; text-align: start; text-indent: 0px; text-transform: none; widows: 2; word-spacing: 0px; -webkit-text-stroke-width: 0px; white-space: normal; text-decoration-thickness: initial; text-decoration-style: initial; text-decoration-color: initial; display: inline !important; float: none;&quot;&gt;volume testing&lt;/span&gt;" style="text;whiteSpace=wrap;html=1;" vertex="1" parent="1">
          <mxGeometry x="1960" y="890" width="130" height="40" as="geometry" />
        </mxCell>
        <mxCell id="1HPbtOqM5iS4PaXnbGBT-117" value="&lt;span style=&quot;color: rgb(0, 0, 0); font-family: Arial, sans-serif; font-size: 16px; font-style: normal; font-variant-ligatures: normal; font-variant-caps: normal; font-weight: 400; letter-spacing: normal; orphans: 2; text-align: start; text-indent: 0px; text-transform: none; widows: 2; word-spacing: 0px; -webkit-text-stroke-width: 0px; white-space: normal; text-decoration-thickness: initial; text-decoration-style: initial; text-decoration-color: initial; display: inline !important; float: none;&quot;&gt;scalability testing&lt;/span&gt;" style="text;whiteSpace=wrap;html=1;" vertex="1" parent="1">
          <mxGeometry x="1960" y="930" width="130" height="40" as="geometry" />
        </mxCell>
        <mxCell id="1HPbtOqM5iS4PaXnbGBT-119" value="&lt;span style=&quot;color: rgb(0, 0, 0); font-family: Arial, sans-serif; font-size: 16px; font-style: normal; font-variant-ligatures: normal; font-variant-caps: normal; font-weight: 400; letter-spacing: normal; orphans: 2; text-align: start; text-indent: 0px; text-transform: none; widows: 2; word-spacing: 0px; -webkit-text-stroke-width: 0px; white-space: normal; text-decoration-thickness: initial; text-decoration-style: initial; text-decoration-color: initial; display: inline !important; float: none;&quot;&gt;configuration testing&lt;/span&gt;" style="text;whiteSpace=wrap;html=1;" vertex="1" parent="1">
          <mxGeometry x="1880" y="520" width="230" height="40" as="geometry" />
        </mxCell>
        <mxCell id="1HPbtOqM5iS4PaXnbGBT-120" value="&lt;span style=&quot;color: rgb(0, 0, 0); font-family: Arial, sans-serif; font-size: 16px; font-style: normal; font-variant-ligatures: normal; font-variant-caps: normal; font-weight: 400; letter-spacing: normal; orphans: 2; text-align: start; text-indent: 0px; text-transform: none; widows: 2; word-spacing: 0px; -webkit-text-stroke-width: 0px; white-space: normal; text-decoration-thickness: initial; text-decoration-style: initial; text-decoration-color: initial; display: inline !important; float: none;&quot;&gt;reliability testing&lt;/span&gt;" style="text;whiteSpace=wrap;html=1;" vertex="1" parent="1">
          <mxGeometry x="1880" y="620" width="170" height="40" as="geometry" />
        </mxCell>
        <mxCell id="1HPbtOqM5iS4PaXnbGBT-122" value="Comprehensive testing" style="text;html=1;align=center;verticalAlign=middle;whiteSpace=wrap;rounded=0;" vertex="1" parent="1">
          <mxGeometry x="1325" y="920" width="60" height="30" as="geometry" />
        </mxCell>
        <mxCell id="1HPbtOqM5iS4PaXnbGBT-123" value="Input testing" style="text;html=1;align=center;verticalAlign=middle;whiteSpace=wrap;rounded=0;" vertex="1" parent="1">
          <mxGeometry x="1400" y="920" width="60" height="30" as="geometry" />
        </mxCell>
        <mxCell id="1HPbtOqM5iS4PaXnbGBT-124" value="Main testing" style="text;html=1;align=center;verticalAlign=middle;whiteSpace=wrap;rounded=0;" vertex="1" parent="1">
          <mxGeometry x="1460" y="920" width="60" height="30" as="geometry" />
        </mxCell>
        <mxCell id="1HPbtOqM5iS4PaXnbGBT-126" value="Retesting" style="text;html=1;align=center;verticalAlign=middle;whiteSpace=wrap;rounded=0;" vertex="1" parent="1">
          <mxGeometry x="1530" y="920" width="60" height="30" as="geometry" />
        </mxCell>
        <mxCell id="1HPbtOqM5iS4PaXnbGBT-127" value="Regression&amp;nbsp;&lt;div&gt;testing&lt;/div&gt;" style="text;html=1;align=center;verticalAlign=middle;whiteSpace=wrap;rounded=0;" vertex="1" parent="1">
          <mxGeometry x="1594" y="920" width="60" height="30" as="geometry" />
        </mxCell>
        <mxCell id="1HPbtOqM5iS4PaXnbGBT-129" value="Acceptance&amp;nbsp;&lt;div&gt;testing&lt;/div&gt;" style="text;html=1;align=center;verticalAlign=middle;whiteSpace=wrap;rounded=0;" vertex="1" parent="1">
          <mxGeometry x="1670" y="920" width="60" height="30" as="geometry" />
        </mxCell>
        <mxCell id="1HPbtOqM5iS4PaXnbGBT-130" value="&lt;span style=&quot;color: rgb(0, 0, 0); font-family: Arial, sans-serif; font-size: 16px; font-style: normal; font-variant-ligatures: normal; font-variant-caps: normal; font-weight: 400; letter-spacing: normal; orphans: 2; text-align: start; text-indent: 0px; text-transform: none; widows: 2; word-spacing: 0px; -webkit-text-stroke-width: 0px; white-space: normal; text-decoration-thickness: initial; text-decoration-style: initial; text-decoration-color: initial; display: inline !important; float: none;&quot;&gt;Model-Based testing&lt;/span&gt;" style="text;whiteSpace=wrap;html=1;" vertex="1" parent="1">
          <mxGeometry x="1890" y="245" width="150" height="40" as="geometry" />
        </mxCell>
        <mxCell id="1HPbtOqM5iS4PaXnbGBT-132" value="&lt;span style=&quot;color: rgb(0, 0, 0); font-family: Arial, sans-serif; font-size: 16px; font-style: normal; font-variant-ligatures: normal; font-variant-caps: normal; font-weight: 400; letter-spacing: normal; orphans: 2; text-align: start; text-indent: 0px; text-transform: none; widows: 2; word-spacing: 0px; -webkit-text-stroke-width: 0px; white-space: normal; text-decoration-thickness: initial; text-decoration-style: initial; text-decoration-color: initial; display: inline !important; float: none;&quot;&gt;Requirements-Based testing&lt;/span&gt;" style="text;whiteSpace=wrap;html=1;" vertex="1" parent="1">
          <mxGeometry x="1890" y="160" width="300" height="20" as="geometry" />
        </mxCell>
        <mxCell id="1HPbtOqM5iS4PaXnbGBT-133" value="&lt;span style=&quot;color: rgb(0, 0, 0); font-family: Arial, sans-serif; font-size: 16px; font-style: normal; font-variant-ligatures: normal; font-variant-caps: normal; font-weight: 400; letter-spacing: normal; orphans: 2; text-align: start; text-indent: 0px; text-transform: none; widows: 2; word-spacing: 0px; -webkit-text-stroke-width: 0px; white-space: normal; text-decoration-thickness: initial; text-decoration-style: initial; text-decoration-color: initial; display: inline !important; float: none;&quot;&gt;User story testing&lt;/span&gt;" style="text;whiteSpace=wrap;html=1;" vertex="1" parent="1">
          <mxGeometry x="1895" y="200" width="150" height="40" as="geometry" />
        </mxCell>
      </root>
    </mxGraphModel>
  </diagram>
</mxfile>
